<svg xmlns="http://www.w3.org/2000/svg" viewBox="0 0 69.18 5.64"><defs><style>.cls-1{fill:#231815;}</style></defs><title>자산 3</title><g id="레이어_2" data-name="레이어 2"><g id="레이어_1-2" data-name="레이어 1"><path class="cls-1" d="M1,3.91a.83.83,0,0,0,.94.66c.53,0,.75-.23.75-.56s-.2-.55-.95-.72C.66,3,.37,2.65.37,2.08S.88.9,1.84.9s1.49.58,1.55,1.17H2.6c-.05-.3-.22-.58-.78-.58s-.66.18-.66.5.2.46.89.62c1.2.29,1.44.74,1.44,1.3,0,.73-.54,1.25-1.61,1.25A1.47,1.47,0,0,1,.21,3.91Z" transform="translate(-0.21 -0.72)"/><path class="cls-1" d="M4.74,3.72c0,.47.24.86.69.86A.56.56,0,0,0,6,4.21h.75a1.33,1.33,0,0,1-1.38,1A1.41,1.41,0,0,1,4,3.61C4,2.66,4.47,2,5.44,2A1.35,1.35,0,0,1,6.83,3.46a2.17,2.17,0,0,1,0,.26Zm1.34-.48c0-.4-.19-.74-.64-.74s-.64.31-.68.74Z" transform="translate(-0.21 -0.72)"/><path class="cls-1" d="M10.08,4.13a1.26,1.26,0,0,1-1.35,1,1.4,1.4,0,0,1-1.42-1.6A1.48,1.48,0,0,1,8.77,2,1.19,1.19,0,0,1,10.08,3H9.35a.55.55,0,0,0-.59-.48c-.44,0-.69.39-.69,1s.25,1,.68,1a.59.59,0,0,0,.6-.46Z" transform="translate(-0.21 -0.72)"/><path class="cls-1" d="M13.48,3.56a1.5,1.5,0,1,1-3,0A1.48,1.48,0,0,1,12,2,1.45,1.45,0,0,1,13.48,3.56Zm-2.23,0c0,.63.28,1,.74,1s.73-.39.73-1-.26-1-.74-1S11.25,2.9,11.25,3.56Z" transform="translate(-0.21 -0.72)"/><path class="cls-1" d="M14.11,2.8c0-.26,0-.55,0-.78h.73c0,.09,0,.34,0,.43a1,1,0,0,1,.92-.5c.61,0,1,.4,1,1.19v2h-.75V3.22c0-.38-.13-.66-.54-.66s-.66.29-.66.86V5.11h-.74Z" transform="translate(-0.21 -0.72)"/><path class="cls-1" d="M20.35.72V4.25c0,.28,0,.57,0,.86h-.72c0-.09,0-.28,0-.36a1,1,0,0,1-.9.43c-.79,0-1.28-.63-1.28-1.59A1.45,1.45,0,0,1,18.81,2c.48,0,.72.18.79.33V.72ZM18.19,3.57c0,.65.27,1,.71,1,.63,0,.73-.5.73-1s-.09-1-.7-1S18.19,2.93,18.19,3.57Z" transform="translate(-0.21 -0.72)"/><path class="cls-1" d="M23.57,1.6H22.28V1h3.35V1.6H24.35V5.11h-.78Z" transform="translate(-0.21 -0.72)"/><path class="cls-1" d="M26.84.72v1.7A1,1,0,0,1,27.75,2c.55,0,1,.32,1,1.18v2h-.74V3.25c0-.45-.17-.69-.56-.69s-.65.36-.65.89V5.11H26.1V.72Z" transform="translate(-0.21 -0.72)"/><path class="cls-1" d="M32.4,3.56a1.5,1.5,0,1,1-3,0A1.48,1.48,0,0,1,30.93,2,1.45,1.45,0,0,1,32.4,3.56Zm-2.23,0c0,.63.28,1,.74,1s.73-.39.73-1-.26-1-.74-1S30.17,2.9,30.17,3.56Z" transform="translate(-0.21 -0.72)"/><path class="cls-1" d="M35.77,4.76c0,1-.38,1.6-1.49,1.6s-1.31-.6-1.35-1h.76a.56.56,0,0,0,.62.41c.6,0,.73-.37.73-1V4.61a.93.93,0,0,1-.9.47,1.34,1.34,0,0,1-1.28-1.51A1.44,1.44,0,0,1,34.21,2c.54,0,.77.26.83.42a3.06,3.06,0,0,1,0-.35h.71c0,.25,0,.59,0,.89ZM33.63,3.54c0,.57.29.93.71.93s.72-.39.72-1-.12-.95-.7-.95S33.63,2.91,33.63,3.54Z" transform="translate(-0.21 -0.72)"/><path class="cls-1" d="M37.32.72v1.7A1,1,0,0,1,38.23,2c.55,0,1,.32,1,1.18v2h-.74V3.25c0-.45-.17-.69-.55-.69s-.65.36-.65.89V5.11h-.75V.72Z" transform="translate(-0.21 -0.72)"/><path class="cls-1" d="M39.69,2h.5V1.16h.74V2h.63V2.6h-.63V4.21c0,.26.07.37.34.37h.22v.52a2,2,0,0,1-.54.06c-.56,0-.76-.3-.76-.83V2.6h-.5Z" transform="translate(-0.21 -0.72)"/><path class="cls-1" d="M42.62,4.19a.59.59,0,0,0,.64.44c.36,0,.5-.14.5-.36s-.14-.32-.63-.44c-1-.24-1.13-.54-1.13-1S42.32,2,43.2,2s1.21.5,1.24.92h-.71c0-.15-.14-.38-.56-.38s-.44.15-.44.31.11.27.63.39c1,.23,1.15.57,1.15,1s-.4,1-1.28,1-1.28-.44-1.35-1Z" transform="translate(-0.21 -0.72)"/><path class="cls-1" d="M47.4,4.05,47,5.11h-.77L47.7,1h1l1.49,4.15h-.82L49,4.05Zm1.39-.64c-.33-1-.52-1.52-.62-1.87h0c-.1.39-.32,1-.58,1.87Z" transform="translate(-0.21 -0.72)"/><path class="cls-1" d="M50.68,2.86c0-.35,0-.61,0-.84h.74c0,.08,0,.36,0,.57a1,1,0,0,1,1-.64v.72c-.62,0-1,.22-1,1v1.4h-.75Z" transform="translate(-0.21 -0.72)"/><path class="cls-1" d="M53.46,3.72c0,.47.24.86.7.86a.56.56,0,0,0,.61-.37h.74a1.32,1.32,0,0,1-1.37,1,1.42,1.42,0,0,1-1.43-1.57c0-.95.49-1.66,1.46-1.66a1.35,1.35,0,0,1,1.39,1.51,1.1,1.1,0,0,1,0,.26Zm1.35-.48c0-.4-.19-.74-.64-.74s-.65.31-.69.74Z" transform="translate(-0.21 -0.72)"/><path class="cls-1" d="M57.71,1h1.74c1,0,1.34.5,1.34,1a.92.92,0,0,1-.55.9,1,1,0,0,1,.68,1A1.27,1.27,0,0,1,59.5,5.11H57.71Zm1.63,1.67c.49,0,.68-.21.68-.54s-.24-.52-.63-.52h-.92V2.63ZM58.47,4.5h.89c.49,0,.76-.22.76-.65s-.24-.61-.8-.61h-.85Z" transform="translate(-0.21 -0.72)"/><path class="cls-1" d="M62.15,3.72c0,.47.24.86.7.86a.54.54,0,0,0,.6-.37h.75a1.32,1.32,0,0,1-1.37,1A1.42,1.42,0,0,1,61.4,3.61c0-.95.49-1.66,1.46-1.66a1.34,1.34,0,0,1,1.38,1.51,2.17,2.17,0,0,1,0,.26Zm1.35-.48c0-.4-.19-.74-.65-.74s-.64.31-.68.74Z" transform="translate(-0.21 -0.72)"/><path class="cls-1" d="M65.39,4.19a.59.59,0,0,0,.64.44c.36,0,.5-.14.5-.36s-.14-.32-.63-.44c-1-.24-1.13-.54-1.13-1S65.09,2,66,2s1.21.5,1.24.92H66.5c0-.15-.14-.38-.56-.38s-.44.15-.44.31.11.27.63.39c1,.23,1.15.57,1.15,1s-.4,1-1.28,1-1.28-.44-1.35-1Z" transform="translate(-0.21 -0.72)"/><path class="cls-1" d="M67.53,2H68V1.16h.75V2h.63V2.6h-.63V4.21c0,.26.07.37.33.37h.22v.52a1.92,1.92,0,0,1-.53.06c-.57,0-.77-.3-.77-.83V2.6h-.49Z" transform="translate(-0.21 -0.72)"/></g></g></svg>